<svg xmlns="http://www.w3.org/2000/svg" viewBox="0 0 720 500" width="100%" height="100%" style="background-color: white; border-radius: 8px;">
    <path d="M 80,110 C 80,250 200,200 200,400" fill="none" stroke="#333" stroke-width="5" stroke-linecap="round"/>
    
    <path d="M 160,110 C 160,200 360,300 360,400" fill="none" stroke="#333" stroke-width="5" stroke-linecap="round"/>
    
    <path d="M 240,110 C 240,200 440,300 440,400" fill="none" stroke="#333" stroke-width="5" stroke-linecap="round"/>
    
    <path d="M 320,110 C 320,300 80,200 80,400" fill="none" stroke="#333" stroke-width="5" stroke-linecap="round"/>
    
    <path d="M 400,110 C 400,250 160,250 160,400" fill="none" stroke="#333" stroke-width="5" stroke-linecap="round"/>
    
    <path d="M 480,110 C 480,300 280,200 280,400" fill="none" stroke="#333" stroke-width="5" stroke-linecap="round"/>
    
    <path d="M 560,110 C 560,200 520,350 520,400" fill="none" stroke="#333" stroke-width="5" stroke-linecap="round"/>
    
    <path d="M 640,110 C 640,300 600,200 600,400" fill="none" stroke="#333" stroke-width="5" stroke-linecap="round"/>

    <g font-family="Arial, sans-serif" font-size="32" font-weight="bold" text-anchor="middle">
        <rect x="50" y="50" width="60" height="60" fill="#fff" stroke="#000" stroke-width="3"/>
        <text x="80" y="92">1</text>
        <rect x="130" y="50" width="60" height="60" fill="#fff" stroke="#000" stroke-width="3"/>
        <text x="160" y="92">2</text>
        <rect x="210" y="50" width="60" height="60" fill="#fff" stroke="#000" stroke-width="3"/>
        <text x="240" y="92">3</text>
        <rect x="290" y="50" width="60" height="60" fill="#fff" stroke="#000" stroke-width="3"/>
        <text x="320" y="92">4</text>
        <rect x="370" y="50" width="60" height="60" fill="#fff" stroke="#000" stroke-width="3"/>
        <text x="400" y="92">5</text>
        <rect x="450" y="50" width="60" height="60" fill="#fff" stroke="#000" stroke-width="3"/>
        <text x="480" y="92">6</text>
        <rect x="530" y="50" width="60" height="60" fill="#fff" stroke="#000" stroke-width="3"/>
        <text x="560" y="92">7</text>
        <rect x="610" y="50" width="60" height="60" fill="#fff" stroke="#000" stroke-width="3"/>
        <text x="640" y="92">8</text>
    </g>

    <g font-family="Arial, sans-serif" font-size="32" font-weight="bold" text-anchor="middle">
        <rect x="50" y="400" width="60" height="60" fill="#fff" stroke="#000" stroke-width="3"/>
        <text x="80" y="442">Т</text>
        <rect x="130" y="400" width="60" height="60" fill="#fff" stroke="#000" stroke-width="3"/>
        <text x="160" y="442">О</text>
        <rect x="210" y="400" width="60" height="60" fill="#fff" stroke="#000" stroke-width="3"/>
        <text x="240" y="442">В</text>
        <rect x="290" y="400" width="60" height="60" fill="#fff" stroke="#000" stroke-width="3"/>
        <text x="320" y="442">Л</text>
        <rect x="370" y="400" width="60" height="60" fill="#fff" stroke="#000" stroke-width="3"/>
        <text x="400" y="442">Е</text>
        <rect x="450" y="400" width="60" height="60" fill="#fff" stroke="#000" stroke-width="3"/>
        <text x="480" y="442">Р</text>
        <rect x="530" y="400" width="60" height="60" fill="#fff" stroke="#000" stroke-width="3"/>
        <text x="560" y="442">Е</text>
        <rect x="610" y="400" width="60" height="60" fill="#fff" stroke="#000" stroke-width="3"/>
        <text x="640" y="442">Т</text>
    </g>
</svg>
